<svg id="Calque_1" data-name="Calque 1" xmlns="http://www.w3.org/2000/svg" viewBox="0 0 177.33 164.49"><defs><style>.cls-1,.cls-2{fill:none;stroke-linejoin:round;stroke-width:6px;}.cls-1{stroke:#000;}.cls-2{stroke:#006837;}.cls-3{fill:#006837;}</style></defs><path class="cls-1" d="M72.46,95.25c8.69,8.7,12.06,21,10.34,33.35-12.41,1.73-24.66-1.62-33.36-10.33s-12.06-21-10.33-33.36C51.5,83.19,63.76,86.56,72.46,95.25Z"/><path class="cls-1" d="M72.46,95.25c8.69,8.7,12.06,21,10.34,33.35-12.41,1.73-24.66-1.62-33.36-10.33s-12.06-21-10.33-33.36C51.5,83.19,63.76,86.56,72.46,95.25Z"/><path d="M78.85,124.81a57.27,57.27,0,0,1-8.23-3.71c-1.33-.72-2.62-1.51-3.91-2.33-.63-.43-1.27-.84-1.89-1.29L63,116.11c-.62-.46-1.21-1-1.84-1.42s-1.24-1-1.84-1.47a14.72,14.72,0,0,1-1.68-1.67,22,22,0,0,1-1.37-2,23,23,0,0,1-1.06-2.18,13.9,13.9,0,0,1-1-7.27l.57-.19A86.65,86.65,0,0,1,61.07,106a23.6,23.6,0,0,1,2.6,3.17c.38.58.78,1.16,1.22,1.72s.85,1.13,1.33,1.65l1.46,1.56c.49.52,1,1,1.52,1.52,1,1,2.06,2,3.15,3,2.16,2,4.43,3.84,6.77,5.63Z"/><path class="cls-2" d="M72.46,46.21c8.69,8.7,12.06,20.95,10.34,33.35-12.41,1.73-24.66-1.63-33.36-10.33s-12.06-21-10.33-33.36C51.5,34.15,63.76,37.52,72.46,46.21Z"/><path class="cls-2" d="M72.46,46.21c8.69,8.7,12.06,20.95,10.34,33.35-12.41,1.73-24.66-1.63-33.36-10.33s-12.06-21-10.33-33.36C51.5,34.15,63.76,37.52,72.46,46.21Z"/><path class="cls-3" d="M78.85,75.77a57.32,57.32,0,0,1-8.23-3.72c-1.33-.72-2.62-1.5-3.91-2.32-.63-.43-1.27-.84-1.89-1.29L63,67.07c-.62-.46-1.21-1-1.84-1.42s-1.24-1-1.84-1.48a13.25,13.25,0,0,1-1.68-1.67,20.65,20.65,0,0,1-1.37-2,21.75,21.75,0,0,1-1.06-2.17,13.9,13.9,0,0,1-1-7.27l.57-.19A86.66,86.66,0,0,1,61.07,57a24.92,24.92,0,0,1,2.6,3.17c.38.59.78,1.17,1.22,1.73s.85,1.12,1.33,1.65l1.46,1.56c.49.52,1,1,1.52,1.52,1,1,2.06,2,3.15,3,2.16,2,4.43,3.84,6.77,5.64Z"/><path class="cls-1" d="M127.89,95.27c8.69,8.69,12.06,21,10.34,33.35-12.41,1.73-24.65-1.63-33.36-10.33s-12.06-21-10.33-33.36C106.94,83.21,119.2,86.58,127.89,95.27Z"/><path class="cls-1" d="M127.89,95.27c8.69,8.69,12.06,21,10.34,33.35-12.41,1.73-24.65-1.63-33.36-10.33s-12.06-21-10.33-33.36C106.94,83.21,119.2,86.58,127.89,95.27Z"/><path d="M134.28,124.83a57.21,57.21,0,0,1-8.22-3.72c-1.33-.72-2.63-1.5-3.92-2.32-.62-.43-1.26-.85-1.89-1.29l-1.84-1.38c-.63-.45-1.21-1-1.85-1.42s-1.24-1-1.84-1.47a13.17,13.17,0,0,1-1.67-1.67,19,19,0,0,1-1.38-2,20.83,20.83,0,0,1-1-2.18,11.26,11.26,0,0,1-.76-2.32,11.92,11.92,0,0,1-.22-5l.57-.18a84.59,84.59,0,0,1,6.29,6.07,23.53,23.53,0,0,1,2.61,3.17,18.38,18.38,0,0,0,1.21,1.72c.43.56.86,1.13,1.34,1.65l1.45,1.57c.5.51,1,1,1.53,1.52,1,1,2.06,2,3.15,3,2.15,2,4.42,3.84,6.77,5.64Z"/><path class="cls-1" d="M127.89,46.21c8.69,8.7,12.06,20.95,10.34,33.35-12.41,1.73-24.65-1.63-33.36-10.33s-12.06-21-10.33-33.36C106.94,34.15,119.2,37.52,127.89,46.21Z"/><path class="cls-1" d="M127.89,46.21c8.69,8.7,12.06,20.95,10.34,33.35-12.41,1.73-24.65-1.63-33.36-10.33s-12.06-21-10.33-33.36C106.94,34.15,119.2,37.52,127.89,46.21Z"/><path d="M134.28,75.77a57.21,57.21,0,0,1-8.22-3.72c-1.33-.72-2.63-1.5-3.92-2.32-.62-.43-1.26-.84-1.89-1.29l-1.84-1.37c-.63-.46-1.21-1-1.85-1.42s-1.24-1-1.84-1.48a13.17,13.17,0,0,1-1.67-1.67,19,19,0,0,1-1.38-2,21.68,21.68,0,0,1-1-2.17,11.35,11.35,0,0,1-.76-2.33,11.89,11.89,0,0,1-.22-4.94l.57-.19A86.66,86.66,0,0,1,116.5,57a24.17,24.17,0,0,1,2.61,3.17,19.94,19.94,0,0,0,1.21,1.73c.43.56.86,1.12,1.34,1.65l1.45,1.56c.5.52,1,1,1.53,1.52,1,1,2.06,2,3.15,3,2.15,2,4.42,3.84,6.77,5.64Z"/></svg>